<svg xmlns="http://www.w3.org/2000/svg" xmlns:xlink="http://www.w3.org/1999/xlink" width="529" zoomAndPan="magnify" viewBox="0 0 396.75 396.749984" height="529" preserveAspectRatio="xMidYMid meet" version="1.0"><defs><clipPath id="855d405d24"><path d="M 0 0 L 396.5 0 L 396.5 396.5 L 0 396.5 Z M 0 0 " clip-rule="nonzero"/></clipPath><clipPath id="5937fa1366"><path d="M 103 16.824219 L 294 16.824219 L 294 379.824219 L 103 379.824219 Z M 103 16.824219 " clip-rule="nonzero"/></clipPath></defs><g clip-path="url(#855d405d24)"><path fill="#ffffff" d="M 0 0 L 396.75 0 L 396.75 404.25 L 0 404.25 Z M 0 0 " fill-opacity="1" fill-rule="nonzero"/><path fill="#ffffff" d="M 0 0 L 396.75 0 L 396.75 396.75 L 0 396.75 Z M 0 0 " fill-opacity="1" fill-rule="nonzero"/><path fill="#ffffff" d="M 0 0 L 396.75 0 L 396.75 396.75 L 0 396.75 Z M 0 0 " fill-opacity="1" fill-rule="nonzero"/></g><g clip-path="url(#5937fa1366)"><path fill="#000000" d="M 293.964844 143.875 L 230.035156 143.875 L 230.035156 107.574219 C 230.035156 88.84375 231.558594 77.046875 258.378906 77.046875 L 292.261719 77.046875 L 292.261719 19.328125 C 275.773438 17.621094 259.195312 16.789062 242.601562 16.824219 C 193.398438 16.824219 157.488281 46.898438 157.488281 102.109375 L 157.488281 143.875 L 103.078125 143.875 L 103.078125 216.472656 L 157.488281 216.457031 L 157.488281 379.824219 L 230.035156 379.824219 L 230.035156 216.417969 L 285.640625 216.402344 Z M 293.964844 143.875 " fill-opacity="1" fill-rule="nonzero"/></g></svg>